

<svg xmlns="http://www.w3.org/2000/svg" width="101.0" height="110.0" viewBox="0 0 101.0 110.0">
  <defs>
    <linearGradient id="diamond_container" x1="103.97" y1="62.55" x2="-9.26" y2="62.55" gradientUnits="userSpaceOnUse">
      <stop offset="0.08" stop-color="#faf5a4" stop-opacity="1" />
      <stop offset="0.33" stop-color="#feb0fe" stop-opacity="1" />
      <stop offset="0.58" stop-color="#abb3fc" stop-opacity="1" />
      <stop offset="0.85" stop-color="#41f3e7" stop-opacity="1" />
    </linearGradient>
    <linearGradient id="diamond_container_lip" x1="103.44" y1="66.55" x2="-9.79" y2="66.55" gradientUnits="userSpaceOnUse">
      <stop offset="0.08" stop-color="#ece68e" stop-opacity="1" />
      <stop offset="0.33" stop-color="#f198f1" stop-opacity="1" />
      <stop offset="0.58" stop-color="#8a94f0" stop-opacity="1" />
      <stop offset="0.85" stop-color="#2fe7da" stop-opacity="1" />
    </linearGradient>
  </defs>
  <path stroke="url(#diamond_container_lip)" d="M39.59,25.75C29.68,32.73 21.03,41.37 14.05,51.29C9.45,57.85 9.45,66.72 14.05,73.28C21.03,83.19 29.68,91.87 39.63,98.85C46.18,103.45 55.02,103.45 61.58,98.85C71.5,91.87 80.17,83.23 87.15,73.28C91.75,66.72 91.75,57.88 87.15,51.32C80.17,41.41 71.53,32.73 61.58,25.75C55.02,21.15 46.18,21.15 39.63,25.75H39.59Z" stroke-width="4.5" stroke-linecap="round" stroke-linejoin="round"/>
  <path fill="url(#diamond_container)" stroke="url(#diamond_container)" d="M39.59,21.75C29.68,28.73 21.03,37.38 14.05,47.29C9.45,53.85 9.45,62.72 14.05,69.28C21.03,79.19 29.68,87.87 39.63,94.85C46.18,99.45 55.02,99.45 61.58,94.85C71.5,87.87 80.17,79.23 87.15,69.28C91.75,62.72 91.75,53.88 87.15,47.32C80.17,37.41 71.53,28.73 61.58,21.75C55.02,17.15 46.18,17.15 39.63,21.75H39.59Z" stroke-width="4.5" stroke-linecap="round" stroke-linejoin="round"/>  
  <path d="M41.19,23.63C46.97,19.57 54.78,19.57 60.56,23.63C70.29,30.46 78.75,38.95 85.58,48.65C89.64,54.44 89.64,62.24 85.58,68.02C78.75,77.75 70.26,86.21 60.55,93.05C54.77,97.1 46.97,97.1 41.19,93.04C31.46,86.22 23,77.73 16.16,68.02C12.11,62.24 12.11,54.4 16.16,48.62C22.94,38.99 31.33,30.58 40.95,23.78C41.03,23.73 41.11,23.68 41.19,23.63Z" fill="#FFFBE8"/>

  <path d="M72.74,57.56C73.29,55.67 72.2,53.69 70.31,53.14L55.18,48.77C53.29,48.22 51.31,49.31 50.76,51.2C50.22,53.09 51.31,55.07 53.2,55.62L68.32,59.99C70.22,60.54 72.19,59.45 72.74,57.56Z" fill="#cc348dff"/>
  <path d="M76.48,79.18C71.66,84.32 66.32,88.96 60.54,93.03C54.76,97.08 46.96,97.08 41.18,93.03C40.08,92.26 39,91.47 37.94,90.66C34.27,85.6 32.88,78.96 34.75,72.49L36.21,67.45C39.43,56.33 51.06,49.92 62.18,53.14C73.31,56.36 82,65.66 78.78,76.78L76.48,79.18Z" fill="#cc348dff"/>
  <path d="M69.4,86.04C66.58,88.53 63.62,90.86 60.54,93.03C54.76,97.08 46.96,97.08 41.18,93.03C40.08,92.26 39,91.47 37.94,90.66C34.78,86.31 33.32,80.8 34.15,75.23C39.22,81.53 46.6,86.16 56.62,86.24C61.01,86.27 65.45,86.18 69.4,86.04Z" fill="#0084c2ff"/>
  <path d="M71.12,84.49C69.67,85.83 68.18,87.13 66.65,88.38C63.35,88.39 59.73,88.09 56.07,87.44C48.2,86.04 39.86,82.95 33.94,77.53C33.99,76.03 34.21,74.52 34.61,73.02C39.76,78.87 48.25,82.34 56.71,83.85C61.06,84.63 65.32,84.86 68.96,84.67C69.72,84.63 70.44,84.57 71.12,84.49Z" fill="#00448eff"/>
  <path d="M31.88,26.49C35.51,26.8 38.2,29.98 37.9,33.61C37.88,33.84 37.86,34.06 37.84,34.28C37.41,39.39 37.21,41.82 38.22,44.05C39.06,45.88 41.51,48.92 50.72,52.03C54.16,53.19 56.01,56.93 54.85,60.38C53.69,63.82 49.95,65.67 46.5,64.51C35.87,60.92 29.28,56.2 26.23,49.51C23.7,43.95 24.26,37.96 24.65,33.83C24.69,33.36 24.73,32.92 24.77,32.51C25.07,28.88 28.26,26.19 31.88,26.49Z" fill="#cc348dff"/>
  <path d="M60.06,66.38C59.77,65.85 59.11,65.66 58.59,65.95L56.28,67.22C56.18,67.28 56.06,67.24 56.01,67.15L54.74,64.84C54.45,64.31 53.79,64.12 53.26,64.41C52.74,64.7 52.55,65.36 52.84,65.88L54.11,68.19C54.74,69.34 56.18,69.75 57.32,69.12L59.63,67.85C60.16,67.56 60.35,66.9 60.06,66.38Z" fill="#a71e6eff"/>
  <path d="M54.74,64.84C54.45,64.31 53.79,64.12 53.26,64.41L50.95,65.68C50.86,65.74 50.74,65.7 50.69,65.61L49.41,63.29C49.12,62.77 48.46,62.58 47.94,62.87C47.42,63.16 47.22,63.82 47.51,64.34L48.79,66.65C49.42,67.8 50.85,68.21 52,67.58L54.31,66.31C54.83,66.02 55.02,65.36 54.74,64.84Z" fill="#a71e6eff"/>
  <path d="M55.71,71.6C55.42,71.07 54.76,70.88 54.24,71.17L51.92,72.45C51.83,72.5 51.71,72.46 51.66,72.37L50.38,70.06C50.09,69.53 49.44,69.34 48.91,69.63C48.39,69.92 48.2,70.58 48.49,71.1L49.76,73.42C50.39,74.56 51.83,74.97 52.97,74.34L55.28,73.07C55.81,72.78 56,72.12 55.71,71.6Z" fill="#a71e6eff"/>
  <path d="M50.28,70.05C50.01,69.53 49.38,69.35 48.87,69.64L46.63,70.94C46.54,70.99 46.42,70.96 46.37,70.86L45.17,68.57C44.9,68.05 44.27,67.87 43.76,68.16C43.25,68.46 43.06,69.11 43.33,69.63L44.54,71.92C45.13,73.06 46.51,73.46 47.62,72.82L49.86,71.52C50.37,71.23 50.56,70.57 50.28,70.05Z" fill="#a71e6eff"/>
  <path d="M49.34,63.28C49.07,62.76 48.44,62.58 47.94,62.87L45.72,64.17C45.63,64.23 45.51,64.19 45.46,64.1L44.28,61.81C44.01,61.29 43.38,61.11 42.88,61.41C42.38,61.7 42.19,62.36 42.46,62.88L43.64,65.17C44.23,66.3 45.59,66.69 46.69,66.05L48.91,64.75C49.41,64.45 49.61,63.79 49.34,63.28Z" fill="#a92070ff"/>
  <path d="M83.52,30.45C86.12,22.98 82.17,14.83 74.71,12.23V12.23C67.24,9.63 59.09,13.57 56.49,21.04L52.14,33.51C49.54,40.98 53.49,49.13 60.95,51.73V51.73C68.42,54.33 76.57,50.39 79.17,42.92L83.52,30.45Z" fill="#b66bacff"/>
  <path d="M96.96,21.86C97.1,10.21 87.67,0.65 75.89,0.5C64.12,0.36 54.46,9.7 54.32,21.36L54.24,27.9C54.1,39.56 63.53,49.12 75.31,49.26C87.09,49.4 96.75,40.07 96.88,28.41L96.96,21.86Z" fill="#0084c2ff"/>
  <path d="M88.59,4.84C88.44,5.92 87.89,6.87 87.15,7.65C86.16,8.72 84.93,9.38 84.2,9.57L84.2,9.57L84.19,9.57L68.46,13.91C67.92,14.06 67.61,14.62 67.76,15.16C67.9,15.7 68.46,16.01 69,15.86L84.73,11.53C85.85,11.23 87.41,10.35 88.64,9.03C89.33,8.29 89.95,7.37 90.32,6.3C89.77,5.79 89.19,5.3 88.59,4.84Z" fill="#006aadff"/>
  <path d="M69.03,13.71C52.74,17.34 56.47,23.74 50.48,39.61C47.82,47.23 52.6,47.93 59.95,50.49C67.3,53.05 72.47,53.42 75.12,45.8C82.48,27.26 81.19,26.23 69.03,13.71Z" fill="#c6775cff"/>
  <path d="M65.12,22.84C65.79,20.9 64.77,18.78 62.82,18.1C60.88,17.43 58.76,18.45 58.09,20.4L56.77,24.18C56.09,26.12 57.12,28.24 59.06,28.92C61,29.59 63.12,28.57 63.8,26.63L65.12,22.84Z" fill="#ffffffff"/>
  <path d="M75.33,27.12C76.13,24.83 74.92,22.32 72.62,21.52C70.33,20.72 67.82,21.93 67.02,24.23L66.15,26.72C65.35,29.02 66.56,31.53 68.86,32.33C71.15,33.13 73.66,31.91 74.46,29.62L75.33,27.12Z" fill="#ffffffff"/>
  <path d="M60.7,21.92C60.96,21.18 61.63,20.72 62.36,20.68C62.59,20.67 62.82,20.7 63.05,20.78C63.46,20.93 63.79,21.2 64,21.54C64.29,22 64.38,22.58 64.18,23.13L63.22,25.89C62.97,26.62 62.3,27.09 61.57,27.12C61.34,27.13 61.11,27.1 60.88,27.02C60.25,26.8 59.82,26.28 59.68,25.68C59.63,25.41 59.62,25.13 59.69,24.86C59.71,24.8 59.72,24.74 59.74,24.67L60.7,21.92Z" fill="#3d3d3dff"/>
  <path d="M69.65,23.26C68.79,23.31 68,23.87 67.7,24.73L66.98,26.81C66.63,27.82 67.05,28.91 67.93,29.43C68.06,29.5 68.19,29.57 68.33,29.62C68.59,29.7 68.84,29.74 69.09,29.74C69.99,29.73 70.83,29.16 71.14,28.26L71.86,26.18C71.86,26.18 71.86,26.18 71.86,26.18C72.26,25.03 71.66,23.78 70.51,23.38C70.51,23.38 70.51,23.38 70.51,23.38C70.22,23.28 69.93,23.24 69.65,23.26Z" fill="#3d3d3dff"/>
  <path d="M65.4,55.46C71.48,57.23 78.74,54.59 80.66,49.08C82.58,43.57 81.08,37.83 73.97,36.13C73.97,36.13 61.97,31.44 56.43,29.42C50.9,27.39 44.4,30.23 42.48,35.74C40.56,41.24 43.9,46.86 49.59,49.57C55.29,52.27 59.32,53.7 65.4,55.46Z" fill="#3d3d3dff"/>
  <path d="M74.43,37.25C74.43,40.16 71.83,42.52 68.62,42.52C65.4,42.52 62.58,40.16 62.58,37.25C62.58,35.81 63.17,33.98 64.31,33.01C65.48,32.02 67.33,31.8 68.95,31.8C72.17,31.8 74.43,34.34 74.43,37.25Z" fill="#3d3d3dff"/>
  <path d="M59.59,29.63C59.03,31.25 59.88,33.01 61.5,33.58C63.12,34.14 64.89,33.29 65.46,31.67C66.02,30.05 65.16,28.28 63.55,27.72C61.93,27.15 60.16,28.01 59.59,29.63Z" fill="#c6775cff"/>
  <path d="M50.66,14.07C51.55,14.73 51.74,15.98 51.09,16.87L44.22,26.27C43.56,27.16 42.31,27.35 41.42,26.7L26.87,16.06C25.98,15.41 25.79,14.16 26.44,13.27L33.31,3.87C33.97,2.98 35.22,2.78 36.11,3.43L50.66,14.07Z" fill="#f1e4ffff"/>
  <path d="M73.55,48.92C74.8,48.77 75.93,49.67 76.08,50.92C76.22,52.14 75.37,53.25 74.16,53.44C74.15,53.44 74.11,53.45 74.05,53.47C73.91,53.52 73.65,53.63 73.31,53.85C72.65,54.29 71.6,55.24 70.62,57.27C70.07,58.41 68.71,58.89 67.58,58.34C66.44,57.8 65.96,56.43 66.51,55.3C67.82,52.58 69.39,50.97 70.79,50.05C71.48,49.59 72.1,49.32 72.58,49.15C72.82,49.07 73.03,49.02 73.2,48.98C73.28,48.96 73.49,48.93 73.55,48.92Z" fill="#c6775cff"/>
  <path d="M3.69,38.53C3.45,37.45 4.13,36.38 5.21,36.15L16.59,33.66C17.67,33.43 18.73,34.11 18.97,35.19L22.82,52.8C23.05,53.88 22.37,54.94 21.29,55.18L9.91,57.66C8.83,57.9 7.77,57.22 7.53,56.14L3.69,38.53Z" fill="#f1e4ffff"/>
  <path d="M58.32,36.81C58.73,35.79 59.89,35.29 60.92,35.7C62.94,36.51 65.25,35.82 66.83,34.49C67.67,33.77 68.93,33.88 69.64,34.72C70.36,35.57 70.25,36.83 69.41,37.54C67.04,39.54 63.2,40.92 59.43,39.41C58.41,39 57.91,37.84 58.32,36.81Z" fill="#ffffffff"/>
  <path d="M22.55,47.73C22.82,46.66 23.9,46 24.98,46.27L36.27,49.08C37.35,49.35 38,50.44 37.73,51.51L33.37,69C33.11,70.07 32.02,70.72 30.95,70.45L19.65,67.64C18.58,67.37 17.93,66.29 18.19,65.21L22.55,47.73Z" fill="#ffffffff"/>
  <path d="M28.4,55.28C28.89,54.71 29.83,54.95 29.97,55.7L30.3,57.36C30.34,57.56 30.44,57.75 30.6,57.88L31.89,58.98C32.47,59.47 32.23,60.41 31.48,60.55L29.82,60.88C29.61,60.92 29.43,61.03 29.3,61.18L28.2,62.48C27.71,63.05 26.77,62.81 26.63,62.06L26.3,60.4C26.26,60.2 26.15,60.01 26,59.88L24.7,58.78C24.13,58.29 24.37,57.35 25.11,57.21L26.78,56.88C26.98,56.84 27.16,56.74 27.3,56.58L28.4,55.28Z" fill="#ce82ffff"/>
  <path d="M40.46,12.4C41.16,12.1 41.89,12.74 41.68,13.47L41.23,15.11C41.18,15.3 41.19,15.51 41.27,15.7L41.93,17.26C42.23,17.96 41.59,18.69 40.86,18.49L39.22,18.03C39.03,17.98 38.82,17.99 38.63,18.07L37.07,18.74C36.37,19.03 35.64,18.4 35.84,17.67L36.3,16.03C36.35,15.83 36.34,15.62 36.26,15.43L35.59,13.87C35.3,13.17 35.93,12.45 36.66,12.65L38.3,13.1C38.5,13.16 38.71,13.14 38.9,13.06L40.46,12.4Z" fill="#ce82ffff"/>
  <path d="M11.47,41.64C11.63,40.9 12.57,40.66 13.05,41.24L14.14,42.55C14.27,42.71 14.45,42.82 14.65,42.86L16.31,43.2C17.05,43.36 17.29,44.3 16.71,44.78L15.4,45.87C15.24,46 15.13,46.18 15.09,46.38L14.74,48.04C14.59,48.78 13.65,49.02 13.16,48.44L12.08,47.13C11.95,46.97 11.77,46.86 11.57,46.82L9.9,46.47C9.16,46.32 8.93,45.38 9.51,44.9L10.82,43.81C10.98,43.68 11.09,43.5 11.13,43.3L11.47,41.64Z" fill="#ce82ffff"/>
  <path d="M62.93,54.86C65.22,52.41 69.06,52.27 71.52,54.55L86.47,68.46C88.93,70.75 89.07,74.59 86.78,77.05C84.5,79.51 80.12,79.16 77.66,76.87L63.24,63.46C60.78,61.17 60.64,57.32 62.93,54.86Z" fill="#cc348dff"/>
  <path d="M82.45,78.74C84.19,77.16 84.76,73.89 82.57,71.94C78.01,67.88 72.84,63.82 68.27,59.37L71.23,55.56C73.36,54.57 77.43,54.51 80.04,56.47C83.38,58.98 88.67,62.16 89.67,70.57C89.95,72.96 88.94,75.9 87.16,77.27C85.13,78.83 83.25,78.79 82.45,78.74Z" fill="#cc348dff"/>
  <path d="M61.7,58.84C62.11,58.89 62.4,59.27 62.35,59.68C62.32,59.94 62.29,60.14 62.26,60.31C62.23,60.52 62.2,60.7 62.18,60.9C62.15,61.2 62.17,61.44 62.25,61.69C62.42,62.25 62.93,63.02 64.49,64.56C66.95,67 73.35,72.76 76.68,75.72C76.99,76 77.02,76.47 76.74,76.78C76.47,77.09 75.99,77.12 75.68,76.85C72.36,73.89 65.93,68.1 63.43,65.63C61.88,64.09 61.1,63.08 60.81,62.13C60.66,61.64 60.65,61.19 60.69,60.76C60.71,60.54 60.75,60.27 60.79,60.01C60.81,59.83 60.84,59.65 60.86,59.49C60.91,59.08 61.29,58.79 61.7,58.84Z" fill="#a71e6eff"/>
  <path d="M54.59,49.12C54.86,50.45 56.16,51.32 57.49,51.05C59.86,50.57 61.58,50.67 62.98,51.32C64.37,51.97 65.84,53.35 67.3,56.24C67.92,57.45 69.4,57.94 70.62,57.32C71.83,56.71 72.32,55.22 71.7,54.01C69.94,50.53 67.79,48.12 65.06,46.85C62.34,45.58 59.42,45.63 56.52,46.21C55.18,46.48 54.32,47.78 54.59,49.12Z" fill="#c6775cff"/>
  <path d="M58.25,61.1C60.87,64.58 65.78,65.29 69.22,62.7C72.66,60.1 73.33,55.18 70.71,51.71C68.09,48.23 63.18,47.52 59.74,50.12C56.29,52.71 55.63,57.63 58.25,61.1Z" fill="#c6775cff"/>
  <path d="M25.27,30.67C28.39,34.81 34.26,35.66 38.36,32.57C42.47,29.47 43.26,23.6 40.14,19.45C37.01,15.31 31.15,14.46 27.05,17.56C22.94,20.65 22.14,26.52 25.27,30.67Z" fill="#c6775cff"/>
  <path d="M73.09,17.52L74.86,19.01" fill="#00000000" stroke-linecap="round" stroke-width="5.0" stroke="#3d3d3dff"/>
  <path d="M64.58,14.4L62.31,14.8" fill="#00000000" stroke-linecap="round" stroke-width="5.0" stroke="#3d3d3dff"/>
</svg>