<svg xmlns="http://www.w3.org/2000/svg" width="101.0" height="110.0" viewBox="0 0 101.0 110.0">
  <defs>
    <linearGradient id="diamond_container" x1="103.97" y1="62.55" x2="-9.26" y2="62.55" gradientUnits="userSpaceOnUse">
      <stop offset="0.08" stop-color="#faf5a4" stop-opacity="1" />
      <stop offset="0.33" stop-color="#feb0fe" stop-opacity="1" />
      <stop offset="0.58" stop-color="#abb3fc" stop-opacity="1" />
      <stop offset="0.85" stop-color="#41f3e7" stop-opacity="1" />
    </linearGradient>
    <linearGradient id="diamond_container_lip" x1="103.44" y1="66.55" x2="-9.79" y2="66.55" gradientUnits="userSpaceOnUse">
      <stop offset="0.08" stop-color="#ece68e" stop-opacity="1" />
      <stop offset="0.33" stop-color="#f198f1" stop-opacity="1" />
      <stop offset="0.58" stop-color="#8a94f0" stop-opacity="1" />
      <stop offset="0.85" stop-color="#2fe7da" stop-opacity="1" />
    </linearGradient>
  </defs>
  <path stroke="url(#diamond_container_lip)" d="M39.59,25.75C29.68,32.73 21.03,41.37 14.05,51.29C9.45,57.85 9.45,66.72 14.05,73.28C21.03,83.19 29.68,91.87 39.63,98.85C46.18,103.45 55.02,103.45 61.58,98.85C71.5,91.87 80.17,83.23 87.15,73.28C91.75,66.72 91.75,57.88 87.15,51.32C80.17,41.41 71.53,32.73 61.58,25.75C55.02,21.15 46.18,21.15 39.63,25.75H39.59Z" stroke-width="4.5" stroke-linecap="round" stroke-linejoin="round"/>
  <path fill="url(#diamond_container)" stroke="url(#diamond_container)" d="M39.59,21.75C29.68,28.73 21.03,37.38 14.05,47.29C9.45,53.85 9.45,62.72 14.05,69.28C21.03,79.19 29.68,87.87 39.63,94.85C46.18,99.45 55.02,99.45 61.58,94.85C71.5,87.87 80.17,79.23 87.15,69.28C91.75,62.72 91.75,53.88 87.15,47.32C80.17,37.41 71.53,28.73 61.58,21.75C55.02,17.15 46.18,17.15 39.63,21.75H39.59Z" stroke-width="4.5" stroke-linecap="round" stroke-linejoin="round"/>  
  <path d="M41.19,23.63C46.97,19.57 54.78,19.57 60.56,23.63C70.29,30.46 78.75,38.95 85.58,48.65C89.64,54.44 89.64,62.24 85.58,68.02C78.75,77.75 70.26,86.21 60.55,93.05C54.77,97.1 46.97,97.1 41.19,93.04C31.46,86.22 23,77.73 16.16,68.02C12.11,62.24 12.11,54.4 16.16,48.62C22.94,38.99 31.33,30.58 40.95,23.78C41.03,23.73 41.11,23.68 41.19,23.63Z" fill="#FFFBE8"/>
  
  <path d="M88.14,54.13C87.65,52.21 86.81,50.35 85.63,48.67C78.79,38.96 70.33,30.47 60.6,23.64C54.82,19.58 47.01,19.58 41.23,23.64C41.15,23.69 41.07,23.74 40.99,23.79C31.37,30.59 22.99,39 16.21,48.63C14.98,50.38 14.13,52.31 13.64,54.32C13.52,55.01 13.42,55.63 13.35,56.14L13.35,56.14L50.72,81.05L88.41,56.14C88.41,56.1 88.42,56.07 88.42,56.03C88.43,55.98 88.43,55.93 88.44,55.88C88.36,55.4 88.26,54.8 88.14,54.13Z" fill="#fff5d6"/>
  <path d="M44.15,79.03C44.15,79.03 39.63,89.52 31.42,82.11C30.6,81.38 29.88,80.71 29.23,80.11C26.11,77.17 26.34,72.82 29.42,69.83C31.08,68.21 32.81,66.58 33.99,65.58C39.08,60.9 45.28,56.51 45.28,56.51L44.15,79.03Z" fill="#7e50ccff"/>
  <path d="M56.38,95.24C52.51,96.56 48.25,96.43 44.45,94.86V51.9C44.45,51.15 44.84,50.54 45.32,50.54H55.52C56,50.54 56.38,51.15 56.38,51.9V95.24Z" fill="#7e50ccff"/>
  <path d="M35.8,77.72a5.23,7.48 0,1 0,10.47 0a5.23,7.48 0,1 0,-10.47 0z" fill="#7e50ccff"/>
  <path d="M72.57,67.47C70.28,63.37 58.6,59.59 58.6,59.59L54.77,64.93L58.23,69.5L60.11,79.23C67.81,79.23 75.26,72.29 72.57,67.47Z" fill="#7e50ccff"/>
  <path d="M36.36,56L50.54,71.21L64.47,56.28C57.32,50.98 43.58,50.88 36.36,56Z" fill="#a570ffff"/>
  <path d="M55.7,69.72a4.52,9.53 0,1 0,9.05 0a4.52,9.53 0,1 0,-9.05 0z" fill="#7e50ccff"/>
  <path d="M56.35,69.74a4.2,8.15 0,1 0,8.39 0a4.2,8.15 0,1 0,-8.39 0z" fill="#7e50ccff"/>
  <path d="M62.02,25.93L66.64,44.06C72.86,45.95 75.54,48.34 75.18,53.92C75.17,54.21 75.31,54.48 75.57,54.62V54.62C75.85,54.77 76.2,54.71 76.41,54.47C79.32,51.08 80.6,45.65 79.94,40.46C79.2,34.59 75.21,22.61 73.86,18.68C72.04,12.37 67.71,7.13 62.02,4.11V25.93Z" fill="#a570ffff"/>
  <path d="M72.01,66.98C69.96,64.55 65.02,62.33 61.74,61.04C61.29,60.7 60.8,60.51 60.3,60.49C59.26,60.11 58.6,59.9 58.6,59.9L56.38,62.99V52.21C56.38,51.46 55.99,50.84 55.52,50.84H45.32C44.84,50.84 44.45,51.46 44.45,52.21V57.11C42.6,58.46 37.96,61.93 33.99,65.58C33.24,66.21 32.28,67.1 31.25,68.07L50.72,81.05L72.01,66.98Z" fill="#a570ffff"/>
  <path d="M29.74,20.94C31.13,10.56 39.99,2.8 50.47,2.8C60.98,2.8 69.87,10.61 71.21,21.04L73.66,40.08C74.12,43.69 72.58,49.27 69.27,50.77C65.11,52.66 58.6,54.78 50.41,54.78C42.23,54.78 35.73,52.67 31.57,50.79C28.24,49.28 26.7,43.67 27.19,40.05L29.74,20.94Z" fill="#ffc6b7ff"/>
  <path d="M51.61,36.8C51.61,31.58 55.85,27.35 61.07,27.35H63.01C64.32,27.35 65.38,28.41 65.38,29.71V36.04C65.38,37.19 64.56,38.17 63.43,38.37L62.8,38.48C60.13,38.96 57.6,39.98 55.35,41.47L54.67,41.92C53.36,42.8 51.61,41.86 51.61,40.28V36.8Z" fill="#ffffffff"/>
  <path d="M49.22,36.8C49.22,31.58 44.99,27.35 39.77,27.35H37.82C36.51,27.35 35.46,28.41 35.46,29.71V36.04C35.46,37.19 36.28,38.17 37.4,38.37L38.04,38.48C40.7,38.96 43.23,39.98 45.49,41.48L46.16,41.92C47.47,42.8 49.22,41.86 49.22,40.28V36.8Z" fill="#ffffffff"/>
  <path d="M52.34,43.13C52.34,44.21 51.48,45.08 50.42,45.08C49.35,45.08 48.49,44.21 48.49,43.13C48.49,42.06 50.34,39.57 50.42,39.57C50.5,39.57 52.34,42.06 52.34,43.13Z" fill="#ee9583ff"/>
  <path d="M45.23,51.6C46.12,52.62 47.4,53.21 48.75,53.21H52.09C53.44,53.21 54.71,52.63 55.6,51.61V51.61C57.21,49.75 55.78,46.77 53.32,46.8C51.41,46.82 49.41,46.82 47.51,46.8C45.04,46.77 43.61,49.74 45.23,51.6V51.6Z" fill="#a41414ff"/>
  <path d="M53.43,46.8C53.2,46.8 52.96,46.81 52.72,46.81C52.47,46.81 52.21,46.81 51.96,46.81L52.71,48.83C52.8,49.07 53.19,49.11 53.34,48.89L54.62,47.09C54.26,46.92 53.86,46.81 53.43,46.8Z" fill="#ffffffff"/>
  <path d="M46.04,47.18L47.25,48.89C47.4,49.11 47.79,49.07 47.88,48.83L48.63,46.81C48.18,46.81 47.74,46.81 47.3,46.8C46.83,46.83 46.41,46.97 46.04,47.18Z" fill="#ffffffff"/>
  <path d="M55.12,42.83L55.8,42.38C58.05,40.88 60.58,39.86 63.25,39.38L63.88,39.27" fill="#00000000" stroke-linecap="round" stroke-width="2.0" stroke="#ffc6b7ff"/>
  <path d="M45.69,42.83L45.02,42.38C42.77,40.88 40.23,39.86 37.57,39.38L36.94,39.27" fill="#00000000" stroke-linecap="round" stroke-width="2.0" stroke="#ffc6b7ff"/>
  <path d="M55.94,35.85m-2.68,0a2.68,2.68 0,1 1,5.37 0a2.68,2.68 0,1 1,-5.37 0" fill="#3d3d3dff"/>
  <path d="M42.21,35.85C42.21,37.34 43.41,38.54 44.89,38.54C46.37,38.54 47.58,37.34 47.58,35.85C47.58,34.37 46.37,33.17 44.89,33.17C43.41,33.17 42.21,34.37 42.21,35.85Z" fill="#3d3d3dff"/>
  <path d="M49.21,36.45H48.01C43.56,36.45 39.21,35.2 35.46,32.84V29.71C35.46,28.41 36.51,27.35 37.82,27.35H39.77C44.87,27.35 49.03,31.39 49.21,36.45Z" fill="#a570ffff"/>
  <path d="M51.62,36.45H52.83C57.27,36.45 61.62,35.2 65.38,32.84V29.71C65.38,28.41 64.32,27.35 63.01,27.35H61.07C55.96,27.35 51.8,31.39 51.62,36.45Z" fill="#a570ffff"/>
  <path d="M70.4,23.47C72.19,22.44 74.43,23.01 75.47,24.8C76.5,26.59 75.89,28.88 74.1,29.91C72.85,30.63 71.57,30.93 70.56,30.43C69.64,29.98 69.61,28.76 69.92,27.79V27.79C69.99,27.54 70.04,27.29 70.07,27.04L70.4,23.47Z" fill="#ee84ffff"/>
  <path d="M70.4,23.47C72.19,22.44 74.43,23.01 75.47,24.8C76.5,26.59 75.89,28.88 74.1,29.91C72.85,30.63 71.57,30.93 70.56,30.43C69.64,29.98 69.61,28.76 69.92,27.79V27.79C69.99,27.54 70.04,27.29 70.07,27.04L70.4,23.47Z" fill="#ffc6b7ff"/>
  <path d="M63.53,52.9L63.53,51.67C63.89,51.55 64.6,51.2 65.45,50.76C68.48,49.19 70.28,45.82 69.96,42.42L68.26,24.2C68.93,23.94 70.99,23.21 71.35,23.11L73.13,35.99L73.14,36.11L73.14,36.11L73.65,40.08C73.67,40.24 73.8,41.32 73.96,42.68C74.39,46.38 72.21,49.89 68.69,51.13C66.49,51.9 64.34,52.65 63.53,52.9Z" fill="#ffc6b7ff"/>
  <path d="M64.75,52.52C62.8,53.16 60.6,53.73 58.15,54.14C57.93,53.51 57.98,52.88 58.23,52.17L58.94,50.08C59.5,48.45 61.28,47.58 62.92,48.14C64.56,48.69 65.43,50.46 64.87,52.09L64.75,52.52Z" fill="#ee9583ff"/>
  <path d="M74.11,23.43C73.01,22.82 71.63,22.81 70.45,23.49C64.29,25.85 59.45,26.88 54.08,26.82C48.91,26.76 44.68,23.16 43.21,18.4C39.2,27.52 35.33,44.26 33.7,58.51C33.63,59.14 32.99,59.55 32.39,59.32C24.55,56.22 19.66,49.69 20.89,39.93C21.63,34.06 25.62,22.08 26.97,18.15C29.87,8.12 39.12,0.78 50.09,0.78C62.9,0.78 73.38,10.8 74.11,23.43Z" fill="#a570ffff"/>
  <path d="M59.75,50.77L59.75,50.77A2.23,2.23 65.1,0 1,61.08 53.63L59.17,58.85A2.23,2.23 65.1,0 1,56.31 60.18L56.31,60.18A2.23,2.23 65.1,0 1,54.98 57.32L56.89,52.1A2.23,2.23 65.1,0 1,59.75 50.77z" fill="#ffc6b7ff"/>
  <path d="M53.4,53.02C53.08,51.67 51.87,50.66 50.42,50.66C48.96,50.66 47.75,51.67 47.43,53.02C47.85,53.14 48.3,53.21 48.75,53.21H52.09C52.54,53.21 52.98,53.15 53.4,53.02Z" fill="#d22121ff"/>
  <path d="M57.77,63.28m-6.37,0a6.37,6.37 0,1 1,12.75 0a6.37,6.37 0,1 1,-12.75 0" fill="#ffc6b7ff"/>
  <path d="M61.35,61.19C59.65,62.43 59.44,64.16 60.35,64.76C61.15,65.28 62.01,65 62.52,64.89" fill="#00000000" stroke-linecap="round" stroke-width="1.0" stroke="#ee9583ff"/>
  <path d="M58.44,58.54C56.97,59.78 55.62,62.79 57.46,63.6C58.9,64.23 59.62,62.51 61.36,61.15" fill="#00000000" stroke-linecap="round" stroke-width="1.0" stroke="#ee9583ff"/>
  <path d="M42.21,65.31C42.01,63.89 43.12,62.62 44.55,62.62H56.89C58.33,62.62 59.43,63.89 59.23,65.31L57.09,80.67C56.95,81.64 56.12,82.36 55.14,82.36H46.31C45.32,82.36 44.49,81.64 44.36,80.67L42.21,65.31Z" fill="#5d3e92ff"/>
  <path d="M47.85,66.66C47.85,67.55 47.13,68.27 46.25,68.27C45.36,68.27 44.65,67.55 44.65,66.66C44.65,65.78 45.36,65.06 46.25,65.06C47.13,65.06 47.85,65.78 47.85,66.66Z" fill="#a570ffff"/>
  <path d="M46.84,83.32L46.56,83.88A5.85,5.85 71.69,0 1,38.71 86.48L38.71,86.48A5.85,5.85 71.69,0 1,36.11 78.62L36.39,78.07A5.85,5.85 71.69,0 1,44.24 75.47L44.24,75.47A5.85,5.85 71.69,0 1,46.84 83.32z" fill="#ffc6b7ff"/>
  <path d="M47.73,81.09C47.02,78.82 44.02,76.31 40.97,76.88" fill="#00000000" stroke-linecap="round" stroke-width="4.0" stroke="#ffc6b7ff"/>
</svg>