<svg xmlns="http://www.w3.org/2000/svg" width="101" height="110" viewBox="0 0 101 110">
   <defs>
    <linearGradient id="diamond_container" x1="103.97" y1="62.55" x2="-9.26" y2="62.55" gradientUnits="userSpaceOnUse">
      <stop offset="0.08" stop-color="#faf5a4" stop-opacity="1" />
      <stop offset="0.33" stop-color="#feb0fe" stop-opacity="1" />
      <stop offset="0.58" stop-color="#abb3fc" stop-opacity="1" />
      <stop offset="0.85" stop-color="#41f3e7" stop-opacity="1" />
    </linearGradient>
    <linearGradient id="diamond_container_lip" x1="103.44" y1="66.55" x2="-9.79" y2="66.55" gradientUnits="userSpaceOnUse">
      <stop offset="0.08" stop-color="#ece68e" stop-opacity="1" />
      <stop offset="0.33" stop-color="#f198f1" stop-opacity="1" />
      <stop offset="0.58" stop-color="#8a94f0" stop-opacity="1" />
      <stop offset="0.85" stop-color="#2fe7da" stop-opacity="1" />
    </linearGradient>
  </defs>
   <path stroke="url(#diamond_container_lip)" d="M39.59,25.75C29.68,32.73 21.03,41.37 14.05,51.29C9.45,57.85 9.45,66.72 14.05,73.28C21.03,83.19 29.68,91.87 39.63,98.85C46.18,103.45 55.02,103.45 61.58,98.85C71.5,91.87 80.17,83.23 87.15,73.28C91.75,66.72 91.75,57.88 87.15,51.32C80.17,41.41 71.53,32.73 61.58,25.75C55.02,21.15 46.18,21.15 39.63,25.75H39.59Z" stroke-width="4.5" stroke-linecap="round" stroke-linejoin="round"/>
   <path fill="url(#diamond_container)" stroke="url(#diamond_container)" d="M39.59,21.75C29.68,28.73 21.03,37.38 14.05,47.29C9.45,53.85 9.45,62.72 14.05,69.28C21.03,79.19 29.68,87.87 39.63,94.85C46.18,99.45 55.02,99.45 61.58,94.85C71.5,87.87 80.17,79.23 87.15,69.28C91.75,62.72 91.75,53.88 87.15,47.32C80.17,37.41 71.53,28.73 61.58,21.75C55.02,17.15 46.18,17.15 39.63,21.75H39.59Z" stroke-width="4.5" stroke-linecap="round" stroke-linejoin="round"/>
   <path d="M41.19,23.63C46.97,19.57 54.78,19.57 60.56,23.63C70.29,30.46 78.75,38.95 85.58,48.65C89.64,54.44 89.64,62.24 85.58,68.02C78.75,77.75 70.26,86.21 60.55,93.05C54.77,97.1 46.97,97.1 41.19,93.04C31.46,86.22 23,77.73 16.16,68.02C12.11,62.24 12.11,54.4 16.16,48.62C22.94,38.99 31.33,30.58 40.95,23.78C41.03,23.73 41.11,23.68 41.19,23.63Z" fill="#FFFBE8"/>
   
   <path fill="#ffb7e3ff" d="M19.63 55.22c4.01 2.68 11.31 5.41 20.66 1.63l-1.78 5.13s-4.15 3.35-7.46 5.48c-3.95 2.53-9.76 3.75-11.47 1.9-3.23-3.51-3.13-10.51-1.27-13.89.26-.48.87-.55 1.32-.25Z"/>
   <path fill="#0091d6ff" d="m54.89 62.34 12.78 8.57 8.99-9.59 6.64 4.67-12.11 11.69c-2.42 1.9-5.45 1.81-7.87-.48l-11.21-9.29 2.78-5.57Z" fill-rule="evenodd"/>
   <path fill="#a27df4ff" d="M74.55 66.7c-.61.55-1.55-.05-1.31-.83l6.98-23.06 12.28 7.83L74.55 66.7Z"/>
   <path fill="#a27df4ff" d="m92.5 50.64-12.28-7.83c.78-1.16 4.13-.37 7.5 1.77 3.37 2.15 5.5 4.85 4.78 6.06Z"/>
   <path fill="#b190fbff" d="m89.5 53.33-6.71 6c.43-4.3-.11-9.66-3.35-13.94l.78-2.58c.77-1.14 3.98-.41 7.27 1.62 1.46 2.7 2 5.91 2.01 8.9Z" fill-rule="evenodd"/>
   <path fill="#e18e70ff" d="M75.8 62.87c.3 3.68 3.98 6.05 7.85 5.74 3.3-.27 6.43-3.79 6.09-8.01-.42-5.13-6.81-8.29-10.33-7.43-1.29.31-2.82 1.04-2.41 2.93.27 1.24 1.48.9 2 1.54-2.12.17-3.45 2.22-3.2 5.23Z"/>
   <path fill="#ffb7e3ff" d="M73.6 54.37c-6.85 10.02-22.44 12.56-32.64 5.58-9.63-6.61-13.07-23.38-4.88-33.26 9.19-11.07 23.98-12.31 33.46-5.3 10.91 8.06 10.91 22.95 4.06 32.98Z"/>
   <path fill="#ffb7e3ff" d="M73.6 54.37c-6.85 10.02-22.44 12.56-32.64 5.58-9.63-6.61-13.07-23.38-4.88-33.26 9.19-11.07 23.98-12.31 33.46-5.3 10.91 8.06 10.91 22.95 4.06 32.98Z"/>
   <path fill="#00000000" d="M74.57 44.78c-1.87 8.05-12.36 16.99-21 15.28" stroke="#fb90d1ff" stroke-width="1.49809"/>
   <path fill="#e18e70ff" d="M40.29 39.05a17.97 18.47 0 1 0 35.94 0 17.97 18.47 0 1 0-35.94 0z"/>
   <path fill="#e18e70ff" d="M63.56 21.39c7.34 2.32 12.67 9.35 12.67 17.66 0 10.2-8.05 18.47-17.97 18.47-.21 0-.43 0-.64-.01 7.67-2.08 11.78-8.04 13.01-12.89 1.79-7.08-.37-14.98-6.07-18.41.42-.77-.32-3.08-1-4.82Z"/>
   <path fill="#ffffffff" d="M52.14 29.8c4.35-1.18 8.7.82 9.87 4.9.77 2.7-.2 3.64-1.48 3.98-1.28.35-3.33-1.11-7.95-2.04-2.24-.44-3.5-.67-3.96-2.28-.15-.52-.19-3.55 3.52-4.56ZM65.64 39.87c1 .97.44-1.36 4.85 0 1 .3 1.59.24 2.34.17.86-.07 1.83-.31 2.12-1.24 1.34-4.19-5.81-8.43-9.31-3.59-1.66 2.3-1 3.69 0 4.66Z"/>
   <path fill="#ffffffff" d="M70.07 33.07c3 .22 5.76 2.99 4.89 5.73-.3.93-1.27 1.17-2.13 1.24-.03.01-.06.01-.08.01-.51.04-.96.08-1.52-.01.05-2.42-.34-4.82-1.16-6.97Z"/>
   <path fill="#3d3d3dff" d="M56.22 37.51c-.99-.42-2.22-.9-3.76-1.3-.02-.01-.04-.01-.05-.01-.42-.83-.55-1.87-.26-2.88.52-1.84 2.22-2.88 3.78-2.31 1.57.57 2.41 2.53 1.89 4.37-.27.97-.87 1.72-1.6 2.13ZM69.18 39.54c.34-.5.58-1.13.68-1.82.27-1.92-.69-3.64-2.15-3.84-.28-.04-.55-.02-.82.05-.45.34-.87.76-1.25 1.28-1.66 2.3-1 3.69 0 4.66.38.37.54.26.83.06.38-.27 1-.7 2.71-.39Z" fill-rule="evenodd"/>
   <path fill="#e18e70ff" d="m48.85 39.74-1.1-4.82c4.68-1.33 11.58 1.54 12.64 5.85l-4.76 2.22c-.62-2.5-3.88-3.46-6.78-3.25ZM66.98 45.01l-2.35-3.8c2.93-2.96 8.16-3.52 10.39-.55l-3.37 4.1c.03.03-2.56-1.1-4.67.25Z" fill-rule="evenodd"/>
   <path fill="#851631ff" d="M59.19 41.91c.12-.4.69-.48.94-.14.84 1.15 2.95 2.04 4.36 1.42.27-.13.87.21.6.64-.85 1.4-3.39 5.13-4.08 6.12-.84 1.2-1.56 1.41-2.62 1.15-1.05-.27-1.43-1.69-1.06-2.87.27-.87 1.33-4.49 1.86-6.32Z"/>
   <path fill="#d22121ff" d="M58.09 45.66c2.05.69 2.97 2.36 3.35 3.64-.18.27-.33.49-.43.65-.84 1.2-1.56 1.41-2.61 1.15-1.06-.27-1.44-1.69-1.07-2.87.12-.41.42-1.42.76-2.57Z" fill-rule="evenodd"/>
   <path fill="#a55437ff" d="M65.88 39.41c.36.69.01 1.59-.72 1.97-.74.38-1.85.04-2.21-.65-.36-.7.2-2.38.55-2.93 1.19.63 2 .87 2.38 1.61Z"/>
   <path fill="#3d3d3dff" d="M44.59 27.73c9.47 7.3 20.87-6.17 27.94.08-4.07-7.32-10.12-10.58-21.73-7.4-2.72.75-5.17-.31-6.87-3.25-.37-.62-1.2-.73-1.48-.07-1.17 2.83-1.11 8.13 2.14 10.64Z"/>
   <path fill="#fb90d1ff" d="M39.31 58.68c.61-.65 1.38-1.18 2.24-1.59 1.93-.9 4.43-1.2 7.05-.76 2.62.45 4.93 1.58 6.54 3.09 1.29 1.2 2.17 2.69 2.33 4.27-.49.06-.99.11-1.48.14-.1-1.13-.73-2.29-1.84-3.32-1.36-1.27-3.38-2.28-5.75-2.69-2.36-.4-4.55-.11-6.18.65-.69.32-1.26.71-1.71 1.16-.41-.3-.81-.62-1.2-.95Z"/>
   <path fill="#ffb7e3ff" d="M39.32 61.75a5.41 8.51 101.21 1 0 16.76 2.87 5.41 8.51 101.21 1 0-16.76-2.87z"/>
   <path fill="#1cb0f6ff" d="M34.01 66.77c3.04-11.82 27.75-7.29 23.46 6.41-.95 3.71-4.27 4.99-8.28 4.48-4.01-.51-4.75-.56-8.77-2.18-4.03-1.61-7.64-3.91-6.41-8.71Z"/>
   <path fill="#1cb0f6ff" d="M53.1 62.22c3.66 2.22 5.93 5.98 4.37 10.96-.72 2.81-2.8 4.23-5.51 4.53-.13-1.38-.36-2.55-.66-3.43.05-.42.08-.74.11-1 .11-.93.13-1.14.24-2.4.36.16.13-.05-.04-.21-.14-.13-.24-.22.04-.06 3.25-1.24 2.02-6.09 1.51-8.14-.03-.08-.05-.16-.06-.24v-.01Z"/>
   <path fill="#e18e70ff" d="M4.34 24.1a2.91 2.91 0 1 0 5.82 0 2.91 2.91 0 1 0-5.82 0z"/>
   <path fill="#ffdffbff" d="M25.97 1.52c1.29-.75 2.95-.42 3.85.78l.01.02 7.6 11.24c1.04 1.41.63 3.41-.89 4.29L13.96 31.04c-1.52.88-3.47.25-4.18-1.36L4.3 17.27c-.6-1.37-.08-2.98 1.21-3.73L25.97 1.52Z" fill-rule="evenodd"/>
   <path fill="#ffb7e3ff" d="M27.82 3.1c.42.18.61.67.43 1.08l-5.83 13.3c-.14.33-.47.52-.82.49L6.46 16.78c-.46-.04-.79-.43-.76-.88.04-.46.43-.79.88-.76l14.57 1.15 5.59-12.77c.18-.41.67-.6 1.08-.42Z" fill-rule="evenodd"/>
   <path fill="#ff73c8ff" d="M53.86 74.16c.02.09.03.17.01.26-.7 3.21-.54 4.16-2.74 6.88-2.56-.83-14.59-2.93-16.08-4.26-.09-1.88-.04-2.8.13-3.86.17-1.12.64-2.2 1.55-2.85 5.19-3.71 15.56-1.09 17.13 3.83Z"/>
   <path fill="#ffb7e3ff" d="M42.84 68.57c1.32.04 2.15.04 3.54.4l-.72 4.29c-.05.28-.32.46-.6.38l-2.86-.78c-.28-.08-.44-.37-.37-.65l1.01-3.64ZM52.86 72.32c1.02 1.13 1.48 2.66 1.25 4.14L53.88 78c-.05.35-.44.53-.74.33l-1.05-.66c-.19-.11-.28-.33-.24-.54l1.01-4.81Z"/>
   <path fill="#ffb7e3ff" d="M58.38 94.32c-5.46 2.71-12.11 2.28-17.19-1.29-5.92-4.16-11.37-8.92-16.28-14.21 4.74-7.33 13.87-10.07 23.22-6.14 10.32 4.33 12.72 13.02 10.25 21.64Z"/>
   <path fill="#ffb7e3ff" d="M47.4 95.72c5.2-7.49 5.04-17.55 3.71-21.55 7.79 4.66 9.48 12.44 7.26 20.15-3.41 1.7-7.3 2.16-10.97 1.4Z"/>
   <path fill="#feb7f3ff" d="M82.89 31.04c-.42-.09-.15-.84-.07-1.26l.89-4.53c.42-2.14-1.17-3.97-3.11-4.98-2.96-1.53-4.3-5.04-3.11-8.15l.46-1.22c.16-.41.61-.61 1.01-.45l1 .38c.4.15.6.6.45 1l-.47 1.22c-.71 1.87.09 3.97 1.86 4.89 2.98 1.55 4.59 4.87 3.94 8.16l-.89 4.53c-.08.42-.49.69-.91.61l-1.05-.2Z" fill-rule="evenodd"/>
   <path fill="#9674f1ff" d="M94.88 39.18c.26-.28.71-.3.99-.03l1.61 1.5c.28.26.3.71.03.99l-3.22 3.47c-.26.28-.71.3-.99.03l-1.61-1.5c-.28-.27-.3-.71-.03-1l3.22-3.46Z"/>
   <path fill="#fd7bcbff" d="M92.52 20.32c-.22.32-.66.4-.98.18l-1.8-1.26c-.32-.23-.4-.66-.18-.98l3.42-4.89c.22-.31.66-.39.98-.17l1.8 1.26c.32.22.4.66.17.98l-3.41 4.88Z"/>
   <path fill="#e5e1fdff" d="M94.59 25.97c0 1.38-1.12 2.49-2.5 2.49s-2.5-1.11-2.5-2.49c0-1.38 1.12-2.5 2.5-2.5s2.5 1.12 2.5 2.5Z"/>
   <path fill="#feb7f3ff" d="M95.77 32.21c-.05.27-.31.45-.59.43-.76-.06-1.95.03-3.14.66-1.44.77-3.04 2.4-3.86 5.93l-.12.55c-.06.27-.33.44-.6.38l-1.11-.26c-.26-.06-.43-.33-.37-.6l.13-.55c.93-4.04 2.87-6.24 4.94-7.33 1.73-.92 3.46-1.01 4.55-.89.27.03.45.3.4.57l-.23 1.11Z" fill-rule="evenodd"/>
   <path fill="#1cb0f6ff" d="M41.94 60.81 18.99 31.47l-8.82 6.27 27.41 26.84c3.58 1.07 4.86-2.17 4.36-3.77Z"/>
   <path fill="#e18e70ff" d="M22.62 32.02c0 4.87-4.83 8.66-9.73 8.66-4.89 0-9.1-4.02-9.1-9.35 0-6.5 7.11-12.46 11.64-11.74 1.25.2 2.46 1.44 1.54 3.38-.74 1.58-3.58 1.52-4.08 3.88 5.67-4.17 9.73 1.23 9.73 5.17Z"/>
</svg>