<svg id="vector" xmlns="http://www.w3.org/2000/svg" width="102" height="111" viewBox="0 0 102 111">
   <defs>
      <linearGradient id="diamond_container" x1="103.97" y1="62.55" x2="-9.26" y2="62.55" gradientUnits="userSpaceOnUse">
         <stop offset="0.08" stop-color="#faf5a4" stop-opacity="1" />
         <stop offset="0.33" stop-color="#feb0fe" stop-opacity="1" />
         <stop offset="0.58" stop-color="#abb3fc" stop-opacity="1" />
         <stop offset="0.85" stop-color="#41f3e7" stop-opacity="1" />
      </linearGradient>
      <linearGradient id="diamond_container_lip" x1="103.44" y1="66.55" x2="-9.79" y2="66.55" gradientUnits="userSpaceOnUse">
         <stop offset="0.08" stop-color="#ece68e" stop-opacity="1" />
         <stop offset="0.33" stop-color="#f198f1" stop-opacity="1" />
         <stop offset="0.58" stop-color="#8a94f0" stop-opacity="1" />
         <stop offset="0.85" stop-color="#2fe7da" stop-opacity="1" />
      </linearGradient>
      <clipPath id="clip_path_0">
         <path d="M0.14,0.7h101v110h-101z"/>
      </clipPath>
   </defs>
   <path stroke="url(#diamond_container_lip)" d="M39.59,25.75C29.68,32.73 21.03,41.37 14.05,51.29C9.45,57.85 9.45,66.72 14.05,73.28C21.03,83.19 29.68,91.87 39.63,98.85C46.18,103.45 55.02,103.45 61.58,98.85C71.5,91.87 80.17,83.23 87.15,73.28C91.75,66.72 91.75,57.88 87.15,51.32C80.17,41.41 71.53,32.73 61.58,25.75C55.02,21.15 46.18,21.15 39.63,25.75H39.59Z" stroke-width="4.5" stroke-linecap="round" stroke-linejoin="round"/>
   <path fill="url(#diamond_container)" stroke="url(#diamond_container)" d="M39.59,21.75C29.68,28.73 21.03,37.38 14.05,47.29C9.45,53.85 9.45,62.72 14.05,69.28C21.03,79.19 29.68,87.87 39.63,94.85C46.18,99.45 55.02,99.45 61.58,94.85C71.5,87.87 80.17,79.23 87.15,69.28C91.75,62.72 91.75,53.88 87.15,47.32C80.17,37.41 71.53,28.73 61.58,21.75C55.02,17.15 46.18,17.15 39.63,21.75H39.59Z" stroke-width="4.5" stroke-linecap="round" stroke-linejoin="round"/>
   <path xmlns="http://www.w3.org/2000/svg" d="M41.19,23.63C46.97,19.57 54.78,19.57 60.56,23.63C70.29,30.46 78.75,38.95 85.58,48.65C89.64,54.44 89.64,62.24 85.58,68.02C78.75,77.75 70.26,86.21 60.55,93.05C54.77,97.1 46.97,97.1 41.19,93.04C31.46,86.22 23,77.73 16.16,68.02C12.11,62.24 12.11,54.4 16.16,48.62C22.94,38.99 31.33,30.58 40.95,23.78C41.03,23.73 41.11,23.68 41.19,23.63Z" fill="#FFFBE8"/>
   <path fill="#FFFBE8" d="M60.82,24C55.04,19.94 47.23,19.94 41.45,24C41.37,24.05 41.29,24.1 41.21,24.14C31.59,30.95 23.21,39.36 16.43,48.99C12.37,54.77 12.37,62.61 16.43,68.39C23.26,78.09 31.72,86.58 41.45,93.41C47.23,97.47 55.04,97.47 60.82,93.42C70.52,86.58 79.02,78.12 85.85,68.39C89.9,62.61 89.9,54.8 85.85,49.02C79.01,39.32 70.55,30.83 60.82,24Z"/>
   <path fill="#00000000" d="M88.06,69.08C87.11,74.11 82.58,76.52 66.71,66.46" stroke="#ffa901" stroke-width="12" stroke-linecap="round"/>
   <path fill="#3d3d3d" d="M49.37,12.46C48.6,16.26 51.05,19.97 54.85,20.75C58.65,21.52 62.36,19.07 63.14,15.27C63.91,11.47 61.46,7.76 57.66,6.98C53.86,6.21 50.15,8.66 49.37,12.46Z"/>
   <path fill="#ff4b4b" d="M81.81,42.02C83.94,33.26 78.65,25.39 70.45,22.46C63.07,19.83 58.85,18.85 51.21,17.78C42.59,16.57 34.26,21.17 32.13,29.92C30,38.68 35.08,47.43 43.49,49.48L62.73,54.16C71.14,56.21 79.68,50.77 81.81,42.02Z"/>
   <path fill="#ffcba3" d="M73.05,43.89C74.4,34.95 68.7,26.46 59.91,24.32C51.13,22.18 42.16,27.1 39.25,35.67L29.89,63.2L68.71,72.65L73.05,43.89Z"/>
   <path fill="#ffffff" d="M59.54,33.15C59.53,33.2 59.52,33.24 59.51,33.28C59.02,35.28 57.01,36.5 55.01,36.02C53.02,35.53 51.79,33.52 52.28,31.53C52.29,31.48 52.3,31.44 52.31,31.39L59.54,33.15Z"/>
   <path fill="#ffffff" d="M68.64,35.37C68.63,35.41 68.61,35.46 68.6,35.5C68.12,37.49 66.11,38.72 64.11,38.23C62.12,37.75 60.89,35.74 61.38,33.74C61.39,33.7 61.4,33.65 61.41,33.61L68.64,35.37Z"/>
   <path fill="#3d3d3d" d="M62.78,30.43C64.18,30.73 65.38,30.65 66.62,30.39C67.37,30.23 68.1,30.71 68.25,31.45C68.41,32.2 67.93,32.93 67.19,33.08C65.67,33.4 64.07,33.52 62.2,33.12C61.46,32.96 60.98,32.22 61.15,31.48C61.31,30.74 62.04,30.26 62.78,30.43Z" fill-rule="1"/>
   <path fill="#3d3d3d" d="M58.42,30.7C57.4,29.7 56.34,29.14 55.14,28.7C54.43,28.44 54.06,27.65 54.32,26.93C54.58,26.22 55.37,25.85 56.09,26.11C57.54,26.65 58.97,27.39 60.34,28.72C60.88,29.25 60.9,30.12 60.37,30.67C59.84,31.22 58.96,31.23 58.42,30.7Z" fill-rule="1"/>
   <path fill="#3d3d3d" d="M51.11,20.78L48.17,20.26C44.28,22.06 37.93,24.57 36.84,29.07L36.35,31.82L44.42,32.54C47.37,32.8 50.08,30.86 50.78,27.98L52.13,22.44C52.31,21.7 51.85,20.96 51.11,20.78Z"/>
   <path fill="#e89665" d="M58.61,36.6C58.63,37.46 59.48,38.17 60.47,38.14C61.46,38.12 62.21,37.37 62.19,36.5C62.15,35.26 60.39,33.69 60.32,33.69C60.24,33.69 58.57,35.28 58.61,36.6Z"/>
   <path fill="#00000000" d="M53.21,46.86C54.51,48.27 57.1,49.04 58.72,48.65" stroke="#e89665" stroke-width="1.5" stroke-linecap="round"/>
   <path fill="#ffffff" d="M71.41,52.76C70.92,51.59 69.46,50.59 67.78,49.76C69.5,50.61 70.92,51.64 71.41,52.76Z"/>
   <path fill="#ffb100" d="M75.66,80.72C75.24,77.94 74.71,74.7 74.29,72.5C72.12,61.08 63.13,51.96 51.67,49.98C40.21,48 28.67,53.56 22.79,63.59C21.3,66.14 19.86,68.64 18.48,71.21C24.93,79.74 32.67,87.25 41.45,93.41C47.23,97.47 55.04,97.47 60.82,93.42C66.16,89.66 71.13,85.4 75.66,80.72Z"/>
   <path fill="#ff4b4b" d="M44.64,29.11C45.11,27.86 46.52,26.64 48.57,25.9C54.28,23.83 63.92,25.27 69.09,30.81C70.57,32.4 71.7,34.89 71.77,35.21C71.87,35.65 72.35,37.21 70.76,37.65C67.06,38.66 64.86,41.51 65.41,48.11C65.57,50.01 66.55,53.16 69.67,53.82C69.93,53.88 70.96,53.93 71.94,53.55C76.97,51.65 79.47,47.04 80.83,42.7C82.74,34.87 78.17,24.77 70.33,22.86L53.37,18.6C48.3,17.36 39,21.41 35.51,24.81L35.49,27.46C35.32,27.44 35.14,27.42 34.96,27.39C34.61,28.22 34.33,29.08 34.11,29.97C32.96,34.7 33.67,41.57 36.06,45.15C37.42,46.15 43.34,47.55 46.91,42.7C50.5,37.84 50.61,31.29 44.64,29.11Z"/>
   <path fill="#ffc700" d="M3.94,19.61C4.67,14.43 7.03,10.64 10.19,8.03C13.51,5.29 17.66,3.89 21.63,3.45C26.5,2.91 35.73,3.09 40.22,11.49C43.6,17.81 40.25,23.61 40.96,25.35C41.67,27.1 41.69,28.9 41.77,30.84C41.96,35.99 36.64,45.03 31.45,45.48C32.67,43.4 32.13,41.45 30.53,41.51C28.95,41.57 28.11,42.92 27.66,44.25C27.57,44.52 27.49,44.79 27.41,45.06C26.96,46.49 23.54,49.7 23.54,49.7C22.18,50.09 20.82,50.6 19.54,51.04C18.87,50.46 17.02,49.54 17.02,49.54C15.05,48.54 13.36,49.38 13,51.04C12.59,52.99 14.84,54.45 16.19,53.97C15.53,55.39 12.72,57.15 10.41,57.02C7.01,56.84 5.54,54.51 4.91,52.13C6.01,52.69 7.1,52.78 7.92,52.27C9.55,51.25 10.41,47.77 7.46,46.04C4.4,44.25 2.31,41.85 2.22,39.24C2.13,36.88 3.35,34.78 5.22,33.63C6.44,32.89 7.51,31.62 7.46,30.45C7.42,29.28 6.49,28.37 5.5,28.62C4.52,28.87 3.46,30.04 4.4,31.62C0.47,29.74 0.34,25.59 1.11,23.43C1.38,22.67 2.16,21.26 3.34,20.18C3.54,19.99 3.74,19.8 3.94,19.61Z"/>
   <path fill="#ffb100" d="M36.47,57.85L42.22,55.07C42.22,55.07 42.74,51.6 39.02,50.73C35.79,49.97 29.63,49.46 27.99,47.12C26.36,44.78 26.65,35.97 27.99,32.92L14.82,26.85C10.54,35.69 15.4,50.97 18.5,53.86C25.92,60.77 36.47,57.85 36.47,57.85Z"/>
   <path fill="#ff9500" d="M75.67,80.66C75.29,78.22 74.79,75.4 74.47,73.69C74.4,73.31 74.23,72.27 74.23,72.27C72.75,64.6 68.2,58.18 61.89,54.07C65.22,56.82 66.69,66.32 65.59,76.5C68.02,77.36 71.95,79.79 74.35,82.01C74.79,81.57 75.24,81.12 75.67,80.66Z"/>
   <path fill="#ff9500" d="M19.8,72.91C23.59,70.95 30.34,69.96 41.15,71.44C42.83,61.68 45.2,52.16 46.94,49.6L46.85,49.59C37.09,49.67 27.88,54.99 22.83,63.6C21.35,66.12 19.93,68.58 18.57,71.12C18.55,71.16 18.53,71.2 18.51,71.24C18.93,71.8 19.36,72.36 19.8,72.91Z"/>
   <path fill="#3d3d3d" d="M56.43,32.39L56.39,32.56C56.19,33.36 55.39,33.85 54.59,33.66C53.79,33.47 53.3,32.66 53.49,31.86L53.54,31.69L56.43,32.39Z"/>
   <path fill="#3d3d3d" d="M64.62,34.39L64.62,34.42C64.42,35.21 63.62,35.7 62.82,35.51C62.02,35.32 61.53,34.51 61.72,33.71L61.73,33.69L64.62,34.39Z"/>
   <path fill="#00000000" d="M88.69,68.93C88.23,71.81 85.59,74.7 80.65,73.15" stroke="#ffa901" stroke-width="12" stroke-linecap="round"/>
   <path fill="#ffffff" d="M52.74,58.45C52.55,59.35 53.35,60.29 54.53,60.54C55.7,60.79 56.81,60.26 57,59.35C57.2,58.45 56.4,57.51 55.22,57.26C54.04,57.01 52.94,57.54 52.74,58.45Z"/>
   <path fill="#ffffff" d="M63.42,55.1C62.04,54.07 60.56,53.15 59.01,52.36C57.67,51.71 56.27,51.15 54.81,50.72L55.07,51.94C55.38,53.97 58.27,56.81 60.78,57.15C62.93,57.45 63.64,56.68 63.42,55.1Z"/>
   <path fill="#ffffff" d="M46.35,50.66L46.48,49.6C48.2,49.57 49.94,49.69 51.67,49.97C53.03,50.2 54.35,50.57 55.64,50.98L55.55,51.86C55.33,53.4 53.09,54.38 50.55,54.05C48.01,53.72 46.13,52.2 46.35,50.66Z"/>
   <path fill="#ff4b4b" d="M30.85,34.99a8.54,10.54 95.6,1 1,-20.98 -2.06a8.54,10.54 95.6,1 1,20.98 2.06z"/>
   <path fill="#f01e1e" d="M9.94,32.39C12.28,34.93 15.38,36.53 19.3,37.39C22.47,38.1 27.12,37.92 30.74,35.7C30.79,35.47 30.83,35.23 30.85,34.99C30.89,34.55 30.89,34.11 30.86,33.68L30.82,33.63C27.61,36.15 22.86,36.48 19.66,35.77C15.62,34.88 12.66,33.19 10.54,30.54C10.26,31.12 10.06,31.74 9.94,32.39Z" fill-rule="1"/>
   <path fill="#ea2b2b" d="M96.78,71.02a8.69,10.25 109.58,1 1,-19.31 -6.87a8.69,10.25 109.58,1 1,19.31 6.87z"/>
   <path fill="#ff4b4b" d="M88.46,59.12m-12.21,-2.54a12.47,12.47 56.74,1 1,24.41 5.08a12.47,12.47 56.74,1 1,-24.41 -5.08"/>
   <path fill="#ff4b4b" d="M34.47,28.1C37.87,25.7 40.02,22.16 40.02,18.22C40.02,10.99 32.79,5.12 23.87,5.12C17.79,5.12 12.5,7.85 9.74,11.87C8.36,13.65 7.34,15.81 6.84,18.34C5.44,25.34 10.4,32.7 17.49,34.95C22.96,36.68 29.52,36.21 32.32,31.95C33.28,32.02 33.65,30.74 34.05,29.4C34.18,28.96 34.32,28.51 34.47,28.1Z"/>
   <path fill="#00000000" d="M37.13,24.02C33.21,22.51 28.81,25.91 28.81,29.52C27.6,29.8 26.33,29.95 25.02,29.95C17.29,29.95 11.02,24.79 11.02,18.43" stroke="#ea2b2b" stroke-width="2" stroke-linecap="round"/>
   <path fill="#00000000" d="M30.29,34C29.25,33.06 28.47,30.73 28.92,28.54" stroke="#ea2b2b" stroke-width="2" stroke-linecap="round"/>
   <path fill="#ff4b4b" d="M34.98,29.95m-5.19,0a5.19,5.19 0,1 1,10.38 0a5.19,5.19 0,1 1,-10.38 0"/>
   <path fill="#ffffff" d="M59.31,44.86C60.93,43.73 60.85,41.37 59.16,40.69C57.17,39.88 56.49,39.08 54.79,37.51C53.42,36.24 51.42,37.21 50.97,38.92C50.51,40.62 51.03,42.45 53.04,44.26C54.7,45.75 57.69,45.99 59.31,44.86Z" fill-rule="1"/>
   <path fill="#ea2b2b" d="M77.31,56.81L77.31,56.81A4.83,4.83 135,0 0,72.48 61.64L72.48,62.44A4.83,4.83 135,0 0,77.31 67.27L77.31,67.27A4.83,4.83 135,0 0,82.14 62.44L82.14,61.64A4.83,4.83 135,0 0,77.31 56.81z"/>
   <path fill="#ff4b4b" d="M76.42,56.14a10.16,8.63 101.74,1 0,16.9 3.51a10.16,8.63 101.74,1 0,-16.9 -3.51z"/>
   <path fill="#ea2b2b" d="M78.71,66.89C75.04,64.41 74.37,60.82 76.26,56.58C76.42,55.81 76.65,55.08 76.93,54.38C76.93,54.4 76.92,54.43 76.91,54.46C76.14,57.04 76.14,59.14 76.6,60.82C77.06,62.49 78,63.8 79.23,64.78C81.71,66.79 85.39,67.46 88.44,66.93C90.06,66.65 91.4,65.82 92.34,65.03C92.81,64.63 93.18,64.26 93.42,63.99C93.54,63.85 93.63,63.74 93.69,63.67C93.72,63.63 93.74,63.6 93.76,63.59L93.77,63.57L93.77,63.57L93.77,63.57C94.09,63.12 94.72,63.02 95.17,63.35C95.61,63.67 95.71,64.3 95.39,64.74L94.58,64.16C95.39,64.74 95.39,64.74 95.39,64.74L95.39,64.75L95.38,64.75L95.37,64.76L95.35,64.8C95.33,64.82 95.3,64.86 95.26,64.91C95.18,65.01 95.06,65.15 94.91,65.32C94.62,65.65 94.18,66.09 93.63,66.56C92.52,67.49 90.87,68.54 88.78,68.9C85.55,69.47 81.66,68.88 78.71,66.89Z"/>
</svg>